<mxfile host="app.diagrams.net" agent="Mozilla/5.0 (Macintosh; Intel Mac OS X 10_15_7) AppleWebKit/605.1.15 (KHTML, like Gecko) Version/16.6 Safari/605.1.15" version="24.8.0">
  <diagram name="Page-1" id="IQDWfD3IAwZ38dXUT0zm">
    <mxGraphModel dx="586" dy="343" grid="1" gridSize="10" guides="1" tooltips="1" connect="1" arrows="1" fold="1" page="1" pageScale="1" pageWidth="827" pageHeight="1169" math="0" shadow="0">
      <root>
        <mxCell id="0" />
        <mxCell id="1" parent="0" />
        <mxCell id="t0glDvnVoFhbejNkPytU-2" value="" style="shape=internalStorage;whiteSpace=wrap;html=1;backgroundOutline=1;" parent="1" vertex="1">
          <mxGeometry x="120" y="240" width="160" height="80" as="geometry" />
        </mxCell>
        <mxCell id="t0glDvnVoFhbejNkPytU-3" value="&lt;b&gt;No Partitioning&lt;/b&gt;" style="text;html=1;align=center;verticalAlign=middle;resizable=0;points=[];autosize=1;strokeColor=none;fillColor=none;" parent="1" vertex="1">
          <mxGeometry x="145" y="330" width="110" height="30" as="geometry" />
        </mxCell>
        <mxCell id="t0glDvnVoFhbejNkPytU-4" value="" style="shape=internalStorage;whiteSpace=wrap;html=1;backgroundOutline=1;" parent="1" vertex="1">
          <mxGeometry x="360" y="240" width="160" height="80" as="geometry" />
        </mxCell>
        <mxCell id="t0glDvnVoFhbejNkPytU-8" value="" style="verticalLabelPosition=bottom;verticalAlign=top;html=1;shape=mxgraph.basic.rect;fillColor2=none;strokeWidth=1;size=20;indent=5;fillColor=#ffe6cc;strokeColor=#d79b00;opacity=60;" parent="1" vertex="1">
          <mxGeometry x="360" y="260" width="160" height="20" as="geometry" />
        </mxCell>
        <mxCell id="t0glDvnVoFhbejNkPytU-9" value="" style="verticalLabelPosition=bottom;verticalAlign=top;html=1;shape=mxgraph.basic.rect;fillColor2=none;strokeWidth=1;size=20;indent=5;fillColor=#dae8fc;strokeColor=#6c8ebf;opacity=60;" parent="1" vertex="1">
          <mxGeometry x="360" y="280" width="160" height="40" as="geometry" />
        </mxCell>
        <mxCell id="t0glDvnVoFhbejNkPytU-10" value="&lt;b&gt;Horizontal partitioning&lt;/b&gt;" style="text;html=1;align=center;verticalAlign=middle;resizable=0;points=[];autosize=1;strokeColor=none;fillColor=none;" parent="1" vertex="1">
          <mxGeometry x="365" y="330" width="150" height="30" as="geometry" />
        </mxCell>
        <mxCell id="t0glDvnVoFhbejNkPytU-11" value="" style="strokeWidth=2;html=1;shape=mxgraph.flowchart.database;whiteSpace=wrap;fillColor=#ffe6cc;strokeColor=#d79b00;" parent="1" vertex="1">
          <mxGeometry x="120" y="200" width="20" height="20" as="geometry" />
        </mxCell>
        <mxCell id="t0glDvnVoFhbejNkPytU-12" value="" style="strokeWidth=2;html=1;shape=mxgraph.flowchart.database;whiteSpace=wrap;fillColor=#dae8fc;strokeColor=#6c8ebf;" parent="1" vertex="1">
          <mxGeometry x="280" y="200" width="20" height="20" as="geometry" />
        </mxCell>
        <mxCell id="t0glDvnVoFhbejNkPytU-14" value="Data of Party A" style="text;html=1;align=center;verticalAlign=middle;resizable=0;points=[];autosize=1;strokeColor=none;fillColor=none;" parent="1" vertex="1">
          <mxGeometry x="140" y="195" width="100" height="30" as="geometry" />
        </mxCell>
        <mxCell id="t0glDvnVoFhbejNkPytU-16" value="Data of Party B" style="text;html=1;align=center;verticalAlign=middle;resizable=0;points=[];autosize=1;strokeColor=none;fillColor=none;" parent="1" vertex="1">
          <mxGeometry x="300" y="195" width="100" height="30" as="geometry" />
        </mxCell>
        <mxCell id="t0glDvnVoFhbejNkPytU-17" value="" style="shape=internalStorage;whiteSpace=wrap;html=1;backgroundOutline=1;" parent="1" vertex="1">
          <mxGeometry x="120" y="370" width="160" height="80" as="geometry" />
        </mxCell>
        <mxCell id="t0glDvnVoFhbejNkPytU-18" value="" style="verticalLabelPosition=bottom;verticalAlign=top;html=1;shape=mxgraph.basic.rect;fillColor2=none;strokeWidth=1;size=20;indent=5;fillColor=#dae8fc;strokeColor=#6c8ebf;opacity=60;" parent="1" vertex="1">
          <mxGeometry x="220" y="390" width="60" height="60" as="geometry" />
        </mxCell>
        <mxCell id="t0glDvnVoFhbejNkPytU-19" value="" style="verticalLabelPosition=bottom;verticalAlign=top;html=1;shape=mxgraph.basic.rect;fillColor2=none;strokeWidth=1;size=20;indent=5;fillColor=#ffe6cc;strokeColor=#d79b00;opacity=60;" parent="1" vertex="1">
          <mxGeometry x="140" y="390" width="80" height="60" as="geometry" />
        </mxCell>
        <mxCell id="t0glDvnVoFhbejNkPytU-20" value="&lt;b&gt;Vertical partitioning&lt;/b&gt;" style="text;html=1;align=center;verticalAlign=middle;resizable=0;points=[];autosize=1;strokeColor=none;fillColor=none;" parent="1" vertex="1">
          <mxGeometry x="130" y="460" width="140" height="30" as="geometry" />
        </mxCell>
        <mxCell id="t0glDvnVoFhbejNkPytU-21" value="" style="shape=internalStorage;whiteSpace=wrap;html=1;backgroundOutline=1;" parent="1" vertex="1">
          <mxGeometry x="360" y="370" width="160" height="80" as="geometry" />
        </mxCell>
        <mxCell id="t0glDvnVoFhbejNkPytU-22" value="" style="verticalLabelPosition=bottom;verticalAlign=top;html=1;shape=mxgraph.basic.rect;fillColor2=none;strokeWidth=1;size=20;indent=5;fillColor=#ffe6cc;strokeColor=#d79b00;opacity=60;" parent="1" vertex="1">
          <mxGeometry x="380" y="390" width="60" height="30" as="geometry" />
        </mxCell>
        <mxCell id="t0glDvnVoFhbejNkPytU-23" value="" style="verticalLabelPosition=bottom;verticalAlign=top;html=1;shape=mxgraph.basic.rect;fillColor2=none;strokeWidth=1;size=20;indent=5;fillColor=#dae8fc;strokeColor=#6c8ebf;opacity=60;" parent="1" vertex="1">
          <mxGeometry x="440" y="400" width="80" height="30" as="geometry" />
        </mxCell>
        <mxCell id="t0glDvnVoFhbejNkPytU-25" value="" style="verticalLabelPosition=bottom;verticalAlign=top;html=1;shape=mxgraph.basic.rect;fillColor2=none;strokeWidth=1;size=20;indent=5;fillColor=#ffe6cc;strokeColor=#d79b00;opacity=60;" parent="1" vertex="1">
          <mxGeometry x="360" y="440" width="110" height="10" as="geometry" />
        </mxCell>
        <mxCell id="t0glDvnVoFhbejNkPytU-26" value="" style="verticalLabelPosition=bottom;verticalAlign=top;html=1;shape=mxgraph.basic.rect;fillColor2=none;strokeWidth=1;size=20;indent=5;fillColor=#dae8fc;strokeColor=#6c8ebf;opacity=60;" parent="1" vertex="1">
          <mxGeometry x="360" y="420" width="20" height="10" as="geometry" />
        </mxCell>
        <mxCell id="t0glDvnVoFhbejNkPytU-27" value="&lt;b&gt;Arbitrary partitioning&lt;/b&gt;" style="text;html=1;align=center;verticalAlign=middle;resizable=0;points=[];autosize=1;strokeColor=none;fillColor=none;" parent="1" vertex="1">
          <mxGeometry x="365" y="460" width="140" height="30" as="geometry" />
        </mxCell>
        <mxCell id="t0glDvnVoFhbejNkPytU-28" value="" style="verticalLabelPosition=bottom;verticalAlign=top;html=1;shape=mxgraph.basic.rect;fillColor2=none;strokeWidth=1;size=20;indent=40;fillColor=#dae8fc;strokeColor=#6c8ebf;opacity=60;" parent="1" vertex="1">
          <mxGeometry x="130" y="390" width="10" height="60" as="geometry" />
        </mxCell>
        <mxCell id="t0glDvnVoFhbejNkPytU-29" value="" style="verticalLabelPosition=bottom;verticalAlign=top;html=1;shape=mxgraph.basic.rect;fillColor2=none;strokeWidth=1;size=20;indent=5;fillColor=#ffe6cc;strokeColor=#d79b00;opacity=60;" parent="1" vertex="1">
          <mxGeometry x="120" y="390" width="10" height="60" as="geometry" />
        </mxCell>
        <mxCell id="t0glDvnVoFhbejNkPytU-30" value="" style="verticalLabelPosition=bottom;verticalAlign=top;html=1;shape=mxgraph.basic.rect;fillColor2=none;strokeWidth=1;size=20;indent=0;fillColor=#dae8fc;strokeColor=#6c8ebf;opacity=60;" parent="1" vertex="1">
          <mxGeometry x="370" y="400" width="10" height="20" as="geometry" />
        </mxCell>
        <mxCell id="t0glDvnVoFhbejNkPytU-31" value="" style="verticalLabelPosition=bottom;verticalAlign=top;html=1;shape=mxgraph.basic.rect;fillColor2=none;strokeWidth=1;size=0;indent=5;fillColor=#ffe6cc;strokeColor=#d79b00;opacity=60;" parent="1" vertex="1">
          <mxGeometry x="360" y="390" width="20" height="10" as="geometry" />
        </mxCell>
        <mxCell id="VYZQGBUjbt68ciF8CEck-1" value="id" style="text;html=1;align=center;verticalAlign=middle;resizable=0;points=[];autosize=1;strokeColor=none;fillColor=none;" vertex="1" parent="1">
          <mxGeometry x="114" y="235" width="30" height="30" as="geometry" />
        </mxCell>
        <mxCell id="VYZQGBUjbt68ciF8CEck-2" value="id" style="text;html=1;align=center;verticalAlign=middle;resizable=0;points=[];autosize=1;strokeColor=none;fillColor=none;" vertex="1" parent="1">
          <mxGeometry x="355" y="235" width="30" height="30" as="geometry" />
        </mxCell>
        <mxCell id="VYZQGBUjbt68ciF8CEck-3" value="id" style="text;html=1;align=center;verticalAlign=middle;resizable=0;points=[];autosize=1;strokeColor=none;fillColor=none;" vertex="1" parent="1">
          <mxGeometry x="114" y="364" width="30" height="30" as="geometry" />
        </mxCell>
        <mxCell id="VYZQGBUjbt68ciF8CEck-4" value="id" style="text;html=1;align=center;verticalAlign=middle;resizable=0;points=[];autosize=1;strokeColor=none;fillColor=none;" vertex="1" parent="1">
          <mxGeometry x="355" y="364" width="30" height="30" as="geometry" />
        </mxCell>
        <mxCell id="VYZQGBUjbt68ciF8CEck-5" value="" style="verticalLabelPosition=bottom;verticalAlign=top;html=1;shape=mxgraph.basic.rect;fillColor2=none;strokeWidth=1;size=0;indent=62.76;fillColor=#ffe6cc;strokeColor=#d79b00;opacity=60;" vertex="1" parent="1">
          <mxGeometry x="360" y="400" width="10" height="20" as="geometry" />
        </mxCell>
        <mxCell id="VYZQGBUjbt68ciF8CEck-6" value="features" style="text;html=1;align=center;verticalAlign=middle;resizable=0;points=[];autosize=1;strokeColor=none;fillColor=none;" vertex="1" parent="1">
          <mxGeometry x="170" y="235" width="70" height="30" as="geometry" />
        </mxCell>
        <mxCell id="VYZQGBUjbt68ciF8CEck-8" value="features" style="text;html=1;align=center;verticalAlign=middle;resizable=0;points=[];autosize=1;strokeColor=none;fillColor=none;" vertex="1" parent="1">
          <mxGeometry x="413" y="235" width="70" height="30" as="geometry" />
        </mxCell>
        <mxCell id="VYZQGBUjbt68ciF8CEck-9" value="features" style="text;html=1;align=center;verticalAlign=middle;resizable=0;points=[];autosize=1;strokeColor=none;fillColor=none;" vertex="1" parent="1">
          <mxGeometry x="165" y="364" width="70" height="30" as="geometry" />
        </mxCell>
        <mxCell id="VYZQGBUjbt68ciF8CEck-10" value="features" style="text;html=1;align=center;verticalAlign=middle;resizable=0;points=[];autosize=1;strokeColor=none;fillColor=none;" vertex="1" parent="1">
          <mxGeometry x="413" y="364" width="70" height="30" as="geometry" />
        </mxCell>
        <mxCell id="VYZQGBUjbt68ciF8CEck-11" value="samples" style="text;html=1;align=center;verticalAlign=middle;resizable=0;points=[];autosize=1;strokeColor=none;fillColor=none;rotation=-90;" vertex="1" parent="1">
          <mxGeometry x="75" y="280" width="70" height="30" as="geometry" />
        </mxCell>
        <mxCell id="VYZQGBUjbt68ciF8CEck-12" value="samples" style="text;html=1;align=center;verticalAlign=middle;resizable=0;points=[];autosize=1;strokeColor=none;fillColor=none;rotation=-90;" vertex="1" parent="1">
          <mxGeometry x="315" y="280" width="70" height="30" as="geometry" />
        </mxCell>
        <mxCell id="VYZQGBUjbt68ciF8CEck-13" value="samples" style="text;html=1;align=center;verticalAlign=middle;resizable=0;points=[];autosize=1;strokeColor=none;fillColor=none;rotation=-90;" vertex="1" parent="1">
          <mxGeometry x="74" y="410" width="70" height="30" as="geometry" />
        </mxCell>
        <mxCell id="VYZQGBUjbt68ciF8CEck-14" value="samples" style="text;html=1;align=center;verticalAlign=middle;resizable=0;points=[];autosize=1;strokeColor=none;fillColor=none;rotation=-90;" vertex="1" parent="1">
          <mxGeometry x="315" y="410" width="70" height="30" as="geometry" />
        </mxCell>
      </root>
    </mxGraphModel>
  </diagram>
</mxfile>
